<svg width="24" height="24" viewBox="0 0 24 24" fill="none" xmlns="http://www.w3.org/2000/svg">
<path d="M12.8971 21.968C12.3671 21.97 11.8571 21.758 11.4831 21.382L3.64613 13.547C3.4418 13.3434 3.28412 13.0978 3.18398 12.8272C3.08384 12.5567 3.04363 12.2676 3.06613 11.98L3.56613 5.41401C3.60067 4.93599 3.80665 4.48652 4.14619 4.14827C4.48573 3.81002 4.93598 3.60574 5.41413 3.57301L11.9801 3.07301C12.0321 3.06201 12.0831 3.06201 12.1351 3.06201C12.6651 3.06201 13.1721 3.27201 13.5451 3.64801L21.3831 11.482C21.5689 11.6677 21.7163 11.8883 21.8169 12.131C21.9174 12.3737 21.9692 12.6338 21.9692 12.8965C21.9692 13.1592 21.9174 13.4194 21.8169 13.6621C21.7163 13.9048 21.5689 14.1253 21.3831 14.311L14.3111 21.382C14.1259 21.5683 13.9055 21.716 13.6628 21.8166C13.4201 21.9172 13.1599 21.9687 12.8971 21.968ZM8.65413 6.65401C8.32524 6.65411 8.00145 6.73531 7.71143 6.89042C7.42142 7.04554 7.17413 7.26978 6.99148 7.54329C6.80883 7.8168 6.69644 8.13113 6.66428 8.45845C6.63212 8.78576 6.68118 9.11595 6.80711 9.41978C6.93304 9.72361 7.13195 9.99169 7.38623 10.2003C7.6405 10.4089 7.9423 10.5516 8.26488 10.6157C8.58747 10.6798 8.92088 10.6633 9.23559 10.5678C9.5503 10.4723 9.8366 10.3006 10.0691 10.068L10.0761 10.062L10.0831 10.055L10.0751 10.062C10.3531 9.78158 10.5419 9.42513 10.6176 9.03759C10.6933 8.65006 10.6527 8.24877 10.5007 7.88432C10.3487 7.51986 10.0923 7.20855 9.76367 6.98961C9.43506 6.77066 9.04899 6.65389 8.65413 6.65401Z" fill="#9F9F9F"/>
</svg>
