<svg width="28" height="28" viewBox="0 0 28 28" fill="none" xmlns="http://www.w3.org/2000/svg">
<path d="M23.3335 14.0001V8.16675H25.6668V15.1667H23.3335M23.3335 19.8334H25.6668V17.5001H23.3335M11.6668 15.1667C14.7818 15.1667 21.0002 16.7301 21.0002 19.8334V23.3334H2.3335V19.8334C2.3335 16.7301 8.55183 15.1667 11.6668 15.1667ZM11.6668 4.66675C12.9045 4.66675 14.0915 5.15841 14.9667 6.03358C15.8418 6.90875 16.3335 8.09574 16.3335 9.33341C16.3335 10.5711 15.8418 11.7581 14.9667 12.6332C14.0915 13.5084 12.9045 14.0001 11.6668 14.0001C10.4292 14.0001 9.24217 13.5084 8.367 12.6332C7.49183 11.7581 7.00016 10.5711 7.00016 9.33341C7.00016 8.09574 7.49183 6.90875 8.367 6.03358C9.24217 5.15841 10.4292 4.66675 11.6668 4.66675ZM11.6668 17.3834C8.20183 17.3834 4.55016 19.0867 4.55016 19.8334V21.1167H18.7835V19.8334C18.7835 19.0867 15.1318 17.3834 11.6668 17.3834ZM11.6668 6.88341C11.017 6.88341 10.3939 7.14154 9.93442 7.601C9.47495 8.06047 9.21683 8.68363 9.21683 9.33341C9.21683 9.98319 9.47495 10.6064 9.93442 11.0658C10.3939 11.5253 11.017 11.7834 11.6668 11.7834C12.3166 11.7834 12.9398 11.5253 13.3992 11.0658C13.8587 10.6064 14.1168 9.98319 14.1168 9.33341C14.1168 8.68363 13.8587 8.06047 13.3992 7.601C12.9398 7.14154 12.3166 6.88341 11.6668 6.88341Z" fill="black"/>
</svg>
