<svg width="18" height="18" viewBox="0 0 18 18" fill="none" xmlns="http://www.w3.org/2000/svg">
<path d="M0.666504 14.8333C0.666504 16.25 1.74984 17.3333 3.1665 17.3333H14.8332C16.2498 17.3333 17.3332 16.25 17.3332 14.8333V8.16663H0.666504V14.8333ZM14.8332 2.33329H13.1665V1.49996C13.1665 0.999959 12.8332 0.666626 12.3332 0.666626C11.8332 0.666626 11.4998 0.999959 11.4998 1.49996V2.33329H6.49984V1.49996C6.49984 0.999959 6.1665 0.666626 5.6665 0.666626C5.1665 0.666626 4.83317 0.999959 4.83317 1.49996V2.33329H3.1665C1.74984 2.33329 0.666504 3.41663 0.666504 4.83329V6.49996H17.3332V4.83329C17.3332 3.41663 16.2498 2.33329 14.8332 2.33329Z" fill="#9F9F9F"/>
</svg>
